<svg width="48" height="48" viewBox="0 0 48 48" fill="none" xmlns="http://www.w3.org/2000/svg">
<path d="M24 45.4999C22.74 45.4999 21.56 45.0201 20.68 44.12L17.64 41.08C17.4 40.84 16.76 40.58 16.44 40.58H12.12C9.52 40.58 7.41998 38.4798 7.41998 35.8798V31.56C7.41998 31.24 7.15998 30.6 6.91998 30.36L3.88 27.32C3 26.44 2.5 25.2599 2.5 23.9999C2.5 22.7399 2.98 21.5599 3.88 20.6799L6.91998 17.6398C7.15998 17.3998 7.41998 16.7599 7.41998 16.4399V12.12C7.41998 9.52005 9.52 7.41985 12.12 7.41985H16.44C16.76 7.41985 17.4 7.15985 17.64 6.91985L20.68 3.87981C22.44 2.11981 25.56 2.11981 27.32 3.87981L30.36 6.91985C30.6 7.15985 31.24 7.41985 31.56 7.41985H35.88C38.48 7.41985 40.58 9.52005 40.58 12.12V16.4399C40.58 16.7599 40.84 17.3998 41.08 17.6398L44.12 20.6799C45 21.5599 45.5 22.7399 45.5 23.9999C45.5 25.2599 45.02 26.44 44.12 27.32L41.08 30.36C40.84 30.6 40.58 31.24 40.58 31.56V35.8798C40.58 38.4798 38.48 40.58 35.88 40.58H31.56C31.24 40.58 30.6 40.84 30.36 41.08L27.32 44.12C26.44 45.0201 25.26 45.4999 24 45.4999ZM9.03998 28.2399C9.83998 29.0399 10.42 30.44 10.42 31.56V35.8798C10.42 36.8198 11.18 37.58 12.12 37.58H16.44C17.56 37.58 18.96 38.1599 19.76 38.9599L22.8 41.9999C23.44 42.6399 24.56 42.6399 25.2 41.9999L28.24 38.9599C29.04 38.1599 30.44 37.58 31.56 37.58H35.88C36.82 37.58 37.58 36.8198 37.58 35.8798V31.56C37.58 30.44 38.16 29.0399 38.96 28.2399L42 25.1999C42.32 24.8799 42.5 24.4599 42.5 23.9999C42.5 23.5399 42.32 23.12 42 22.8L38.96 19.7599C38.16 18.9599 37.58 17.5599 37.58 16.4399V12.12C37.58 11.18 36.82 10.4199 35.88 10.4199H31.56C30.44 10.4199 29.04 9.83997 28.24 9.03997L25.2 5.99993C24.56 5.35993 23.44 5.35993 22.8 5.99993L19.76 9.03997C18.96 9.83997 17.56 10.4199 16.44 10.4199H12.12C11.18 10.4199 10.42 11.18 10.42 12.12V16.4399C10.42 17.5599 9.83998 18.9599 9.03998 19.7599L6 22.8C5.68 23.12 5.5 23.5399 5.5 23.9999C5.5 24.4599 5.68 24.8799 6 25.1999L9.03998 28.2399Z" fill="#292D32"/>
<path d="M30.0005 32C28.8805 32 27.9805 31.1 27.9805 30C27.9805 28.9 28.8805 28 29.9805 28C31.0805 28 31.9805 28.9 31.9805 30C31.9805 31.1 31.1005 32 30.0005 32Z" fill="#292D32"/>
<path d="M18.02 20C16.9 20 16 19.1 16 18C16 16.9 16.9 16 18 16C19.1 16 20 16.9 20 18C20 19.1 19.12 20 18.02 20Z" fill="#292D32"/>
<path d="M17.9999 31.4999C17.6199 31.4999 17.2399 31.36 16.9399 31.06C16.3599 30.48 16.3599 29.5199 16.9399 28.9399L28.9399 16.9399C29.5199 16.3599 30.4799 16.3599 31.0599 16.9399C31.6399 17.5199 31.6399 18.48 31.0599 19.06L19.0599 31.06C18.7599 31.36 18.3799 31.4999 17.9999 31.4999Z" fill="#292D32"/>
</svg>
