<svg width="48" height="48" viewBox="0 0 48 48" fill="none" xmlns="http://www.w3.org/2000/svg">
<path d="M24.0198 45.5C22.7598 45.5 21.4998 45.08 20.5198 44.24L17.3598 41.52C17.0398 41.24 16.2398 40.9599 15.8198 40.9599H12.3598C9.39976 40.9599 6.99978 38.5601 6.99978 35.6001V32.1799C6.99978 31.7599 6.71978 30.9799 6.43978 30.6599L3.73977 27.48C2.09977 25.54 2.09977 22.48 3.73977 20.54L6.43978 17.3601C6.71978 17.0401 6.99978 16.2601 6.99978 15.8401V12.4199C6.99978 9.45991 9.39976 7.06005 12.3598 7.06005H15.8198C16.2398 7.06005 17.0398 6.75999 17.3598 6.49999L20.5198 3.78002C22.4798 2.10002 25.5398 2.10002 27.4998 3.78002L30.6597 6.49999C30.9797 6.77999 31.7798 7.06005 32.1998 7.06005H35.5998C38.5597 7.06005 40.9598 9.45991 40.9598 12.4199V15.8201C40.9598 16.2401 41.2598 17.0401 41.5398 17.3601L44.2398 20.52C45.9198 22.48 45.9198 25.54 44.2398 27.5L41.5398 30.6599C41.2598 30.9799 40.9798 31.7799 40.9798 32.1999V35.6001C40.9798 38.5601 38.5798 40.9599 35.6198 40.9599H32.2197C31.7997 40.9599 30.9998 41.26 30.6798 41.52L27.5198 44.24C26.5198 45.08 25.2598 45.5 24.0198 45.5ZM12.3598 10.04C11.0598 10.04 9.99978 11.0999 9.99978 12.3999V15.8201C9.99978 16.9601 9.45977 18.42 8.73977 19.28L6.03975 22.46C5.33975 23.28 5.33975 24.7 6.03975 25.52L8.73977 28.6999C9.47977 29.5799 10.0198 31.0399 10.0198 32.1599V35.5801C10.0198 36.8801 11.0798 37.9399 12.3798 37.9399H15.8398C16.9998 37.9399 18.4598 38.48 19.3398 39.24L22.4998 41.9599C23.3198 42.66 24.7598 42.66 25.5798 41.9599L28.7398 39.24C29.6198 38.5 31.0798 37.9399 32.2398 37.9399H35.6398C36.9398 37.9399 37.9998 36.8801 37.9998 35.5801V32.1799C37.9998 31.0199 38.5398 29.5599 39.2998 28.6799L41.9998 25.52C42.6998 24.7 42.6998 23.2599 41.9998 22.4399L39.2998 19.28C38.5598 18.4 37.9998 16.94 37.9998 15.78V12.3799C37.9998 11.0799 36.9398 10.02 35.6398 10.02H32.2398C31.0998 10.02 29.6198 9.47996 28.7398 8.71996L25.5798 5.99999C24.7598 5.29999 23.3198 5.29999 22.4998 5.99999L19.3398 8.71996C18.4598 9.45996 16.9998 10.02 15.8398 10.02H12.3598V10.04Z" fill="#292D32"/>
<path d="M27.9995 33.9399H24.4395C23.5995 33.9399 22.3395 33.6799 21.5995 32.9399L18.8395 30.82L20.6795 28.4399L23.5795 30.6799C23.7795 30.8199 24.1395 30.9199 24.4395 30.9199H27.9995C28.4795 30.9199 29.0595 30.5 29.1595 30.08L31.4395 23.1399C31.4995 22.9599 31.4995 22.84 31.4795 22.8C31.4395 22.74 31.2995 22.6799 31.0995 22.6799H27.3595C26.6395 22.6799 25.9795 22.38 25.4995 21.84C25.0395 21.3 24.8195 20.58 24.9195 19.84L25.3995 16.82C25.4395 16.66 25.3195 16.4599 25.1995 16.4199C25.0795 16.3999 24.8995 16.44 24.8395 16.5L21.0195 22.1799L18.5195 20.5L22.3595 14.8C23.1595 13.6 24.8395 13.08 26.1995 13.58C27.7195 14.08 28.6995 15.8001 28.3595 17.3601L27.9995 19.6399H31.0995C32.2795 19.6399 33.3195 20.14 33.9395 21.02C34.5395 21.88 34.6795 23 34.2995 24.06L32.0595 30.8601C31.6395 32.5801 29.8595 33.9399 27.9995 33.9399Z" fill="#292D32"/>
<path d="M17.8005 32.9199H16.8605C13.9205 32.9199 13.4805 30.8599 13.4805 29.6399V20.48C13.4805 19.26 13.9205 17.2 16.8605 17.2H17.8005C20.7405 17.2 21.1805 19.26 21.1805 20.48V29.6399C21.1805 30.8599 20.7405 32.9199 17.8005 32.9199ZM16.5205 29.8999C16.6005 29.9199 16.7205 29.9199 16.8805 29.9199H17.8205C17.9805 29.9199 18.1005 29.9199 18.1805 29.8999C18.1805 29.8399 18.2005 29.7599 18.2005 29.6399V20.48C18.2005 20.36 18.2005 20.28 18.1805 20.22C18.1005 20.2 17.9805 20.2 17.8205 20.2H16.8805C16.7205 20.2 16.6005 20.2 16.5205 20.22C16.5205 20.28 16.5005 20.36 16.5005 20.48V29.6399C16.5005 29.7599 16.5005 29.8399 16.5205 29.8999Z" fill="#292D32"/>
</svg>
