<svg width="48" height="48" viewBox="0 0 48 48" fill="none" xmlns="http://www.w3.org/2000/svg">
<path d="M21.5801 30.3401C21.1801 30.3401 20.8001 30.1801 20.5201 29.9001L15.6801 25.0601C15.1001 24.4801 15.1001 23.5201 15.6801 22.9401C16.2601 22.3601 17.2201 22.3601 17.8001 22.9401L21.5801 26.7201L30.1801 18.1201C30.7601 17.5401 31.7201 17.5401 32.3001 18.1201C32.8801 18.7001 32.8801 19.6601 32.3001 20.2401L22.6401 29.9001C22.3601 30.1801 21.9801 30.3401 21.5801 30.3401Z" fill="#292D32"/>
<path d="M23.9998 45.5C22.7398 45.5 21.4798 45.08 20.4998 44.24L17.3398 41.52C17.0198 41.24 16.2198 40.96 15.7998 40.96H12.3598C9.39977 40.96 6.99977 38.56 6.99977 35.6V32.18C6.99977 31.76 6.71977 30.98 6.43977 30.66L3.73977 27.48C2.09977 25.54 2.09977 22.48 3.73977 20.54L6.43977 17.36C6.71977 17.04 6.99977 16.26 6.99977 15.84V12.4C6.99977 9.44 9.39977 7.04 12.3598 7.04H15.8198C16.2398 7.04 17.0398 6.74 17.3598 6.48L20.5198 3.76C22.4798 2.08 25.5398 2.08 27.4998 3.76L30.6598 6.48C30.9798 6.76 31.7798 7.04 32.1998 7.04H35.5998C38.5598 7.04 40.9598 9.44 40.9598 12.4V15.8C40.9598 16.22 41.2598 17.02 41.5398 17.34L44.2598 20.5C45.9398 22.46 45.9398 25.52 44.2598 27.48L41.5398 30.64C41.2598 30.96 40.9598 31.76 40.9598 32.18V35.58C40.9598 38.54 38.5598 40.94 35.5998 40.94H32.1998C31.7798 40.94 30.9798 41.24 30.6598 41.5L27.4998 44.22C26.5198 45.08 25.2598 45.5 23.9998 45.5ZM12.3598 10.04C11.0598 10.04 9.99977 11.1 9.99977 12.4V15.82C9.99977 16.96 9.45977 18.42 8.71977 19.28L6.01977 22.46C5.31977 23.28 5.31977 24.7 6.01977 25.52L8.71977 28.7C9.45977 29.58 9.99977 31.02 9.99977 32.16V35.58C9.99977 36.88 11.0598 37.94 12.3598 37.94H15.8198C16.9798 37.94 18.4398 38.48 19.3198 39.24L22.4798 41.96C23.2998 42.66 24.7398 42.66 25.5598 41.96L28.7198 39.24C29.5998 38.5 31.0598 37.94 32.2198 37.94H35.6198C36.9198 37.94 37.9798 36.88 37.9798 35.58V32.18C37.9798 31.02 38.5198 29.56 39.2798 28.68L41.9998 25.52C42.6998 24.7 42.6998 23.26 41.9998 22.44L39.2798 19.28C38.5198 18.4 37.9798 16.94 37.9798 15.78V12.4C37.9798 11.1 36.9198 10.04 35.6198 10.04H32.2198C31.0598 10.04 29.5998 9.5 28.7198 8.74L25.5598 6.02C24.7398 5.32 23.2998 5.32 22.4798 6.02L19.3198 8.76C18.4398 9.5 16.9598 10.04 15.8198 10.04H12.3598Z" fill="#292D32"/>
</svg>
