<svg width="150" height="25" viewBox="0 0 608 129" fill="none" xmlns="http://www.w3.org/2000/svg">
<path d="M61.8344 45.5683C59.5811 43.3231 56.8839 41.5883 53.7428 40.3636C50.6359 39.1389 47.3072 38.5266 43.7563 38.5266C40.2055 38.5266 36.9622 39.1389 34.0259 40.3636C31.0896 41.5883 28.5632 43.3402 26.4464 45.6195C24.3295 47.8987 22.6907 50.6202 21.5299 53.784C20.3692 56.9138 19.7887 60.4177 19.7887 64.2959C19.7887 68.174 20.3692 71.7291 21.5299 74.9608C22.725 78.1926 24.3979 80.9823 26.5488 83.3294C28.7338 85.6428 31.3115 87.4458 34.2819 88.7386C37.2865 90.0312 40.5982 90.6775 44.2172 90.6775C47.2218 90.6775 49.9702 90.2184 52.4625 89.2998C54.9891 88.3813 57.2082 87.0716 59.1202 85.3706C61.0322 83.6697 62.6027 81.6116 63.8318 79.1962C65.095 76.7808 65.9657 74.0764 66.4436 71.0826H44.166V59.091H80.3224L80.7832 65.0103C80.7832 70.8275 79.8786 76.1515 78.069 80.9823C76.2937 85.8129 73.7671 89.9803 70.4895 93.4842C67.2119 96.9541 63.3026 99.6416 58.7617 101.547C54.2549 103.452 49.2533 104.404 43.7563 104.404C38.0546 104.404 32.7627 103.401 27.8803 101.394C23.0322 99.3865 18.7815 96.5798 15.1283 92.9739C11.5093 89.3679 8.69254 85.1495 6.67818 80.3188C4.6638 75.4541 3.65662 70.1982 3.65662 64.5509C3.65662 58.9038 4.64672 53.682 6.62697 48.8853C8.64133 44.0546 11.441 39.8362 15.0259 36.2302C18.645 32.6243 22.8615 29.8176 27.6755 27.8104C32.4895 25.8034 37.7303 24.7998 43.3978 24.7998C48.6898 24.7998 53.8111 25.7183 58.7617 27.5554C63.7123 29.3924 68.1337 32.0119 72.0259 35.4138L61.8344 45.5683ZM104.433 102.873H87.8916L118.517 26.3307H135.161L165.735 102.873H149.194L142.894 86.4422H110.733L104.433 102.873ZM115.905 72.6646H137.773L126.813 44.2927L115.905 72.6646ZM225.696 102.873H175.507V26.3307H191.281V89.1468H225.696V102.873ZM269.575 104.404C263.736 104.404 258.343 103.418 253.392 101.445C248.475 99.4374 244.19 96.6479 240.537 93.0759C236.918 89.47 234.101 85.2515 232.087 80.4209C230.106 75.5902 229.116 70.3172 229.116 64.6021C229.116 58.8869 230.106 53.6139 232.087 48.7832C234.101 43.9185 236.918 39.7002 240.537 36.1282C244.19 32.5562 248.475 29.7836 253.392 27.8104C258.343 25.8034 263.736 24.7998 269.575 24.7998C275.413 24.7998 280.789 25.8034 285.706 27.8104C290.622 29.7836 294.873 32.5562 298.459 36.1282C302.078 39.7002 304.895 43.9185 306.909 48.7832C308.923 53.6139 309.931 58.8869 309.931 64.6021C309.931 70.3172 308.923 75.5902 306.909 80.4209C304.895 85.2515 302.078 89.47 298.459 93.0759C294.873 96.6479 290.622 99.4374 285.706 101.445C280.789 103.418 275.413 104.404 269.575 104.404ZM269.575 90.6775C273.023 90.6775 276.216 90.0142 279.151 88.6875C282.122 87.3608 284.7 85.5237 286.884 83.1764C289.07 80.7951 290.76 78.0396 291.955 74.9098C293.184 71.746 293.798 68.3101 293.798 64.6021C293.798 60.894 293.184 57.4581 291.955 54.2943C290.76 51.1305 289.07 48.375 286.884 46.0277C284.7 43.6464 282.122 41.8094 279.151 40.5166C276.216 39.1899 273.023 38.5266 269.575 38.5266C266.093 38.5266 262.866 39.1899 259.895 40.5166C256.96 41.8094 254.382 43.6464 252.163 46.0277C249.977 48.375 248.271 51.1305 247.041 54.2943C245.847 57.4581 245.249 60.894 245.249 64.6021C245.249 68.3101 245.847 71.746 247.041 74.9098C248.271 78.0736 249.977 80.8461 252.163 83.2275C254.382 85.5747 256.96 87.4117 259.895 88.7386C262.866 90.0312 266.093 90.6775 269.575 90.6775ZM391.862 102.873H373.732L337.832 50.6202V102.873H322.058V26.3307H340.187L376.088 78.6859V26.3307H391.862V102.873Z" fill="#EEEEEE"/>
<path d="M426.189 102.873H376V26.3307H391.774V89.1468H426.189V102.873ZM452.656 26.3307H436.882V102.873H452.656V26.3307ZM537.249 102.873H519.119L483.219 50.6202V102.873H467.446V26.3307H485.576L521.476 78.6859V26.3307H537.249V102.873ZM552.091 102.873V26.3307H601.665V40.0573H567.864V57.4581H599.565V71.2358H567.864V89.1468H602.176V102.873H552.091Z" fill="#00ADB5"/>
</svg>
